<svg viewBox="0 0 450 120" class="h-full w-auto max-w-[80%]" fill="none" xmlns="http://www.w3.org/2000/svg" data-fg-d3bl65="0.8:5.6230:/src/app/App.tsx:110:17:6199:76:e:LogoHorizontal::::::CtKE" data-fgid-d3bl65=":r6k:" data-fg-bdvh17="1.17:5.3576:/src/app/components/LogoIcon.tsx:78:5:2162:528:e:svg:ete" data-fgid-bdvh17=":r6l:"><svg x="0" y="0" width="120" height="120" viewBox="0 0 120 120" data-fg-bdvh18="1.17:5.3576:/src/app/components/LogoIcon.tsx:85:7:2315:113:e:svg:e" data-fgid-bdvh18=":r6m:"><path d="M 30 10 L 90 10 L 120 40 L 100 60 L 120 80 L 90 110 L 30 110 L 0 80 L 20 60 L 0 40 Z" stroke="#22c55e" stroke-width="2" stroke-linejoin="miter" fill="none" opacity="0.3" data-fg-bdvh5="1.17:5.3576:/src/app/components/LogoIcon.tsx:17:9:372:245:e:path"/><path d="M 30 20 L 90 20 L 110 40 L 90 60 L 110 80 L 90 100 L 30 100 L 10 80 L 30 60 L 10 40 Z" stroke="#22c55e" stroke-width="2.5" stroke-linejoin="miter" fill="none" data-fg-bdvh7="1.17:5.3576:/src/app/components/LogoIcon.tsx:26:9:662:224:e:path"/><g stroke-linecap="square" data-fg-bdvh9="1.17:5.3576:/src/app/components/LogoIcon.tsx:37:5:986:420:e:g:etxtetxte"><path d="M 85 40 L 50 40 L 30 60 L 90 60 L 70 80 L 35 80" stroke="#22c55e" stroke-width="14" stroke-linejoin="miter" fill="none" data-fg-bdvh10="1.17:5.3576:/src/app/components/LogoIcon.tsx:38:7:1019:173:e:path"/><polygon points="85,24 108,40 85,56" fill="#22c55e" data-fg-bdvh12="1.17:5.3576:/src/app/components/LogoIcon.tsx:46:7:1242:52:e:polygon"/><polygon points="35,64 12,80 35,96" fill="#22c55e" data-fg-bdvh14="1.17:5.3576:/src/app/components/LogoIcon.tsx:48:7:1346:51:e:polygon"/></g></svg><text x="135" y="82" font-family="system-ui, -apple-system, sans-serif" font-weight="800" font-size="64" fill="#000000" letter-spacing="-0.03em" data-fg-bdvh20="1.17:5.3576:/src/app/components/LogoIcon.tsx:88:7:2435:244:e:text:t">SnipSync</text></svg>