<svg viewBox="0 0 400 300" class="w-full h-full" xmlns="http://www.w3.org/2000/svg" data-fg-d3bl30="0.8:5.6230:/src/app/App.tsx:57:15:3149:1438:e:svg:xtetetetetetetxtetetetete" data-fgid-d3bl30=":r53:"><rect width="400" height="150" fill="#1f2024" data-fg-d3bl32="0.8:5.6230:/src/app/App.tsx:59:17:3305:48:e:rect"/><line x1="0" y1="150" x2="400" y2="150" stroke="#2d2f36" stroke-width="2" data-fg-d3bl33="0.8:5.6230:/src/app/App.tsx:60:17:3370:75:e:line"/><svg x="50" y="55" width="40" height="40" viewBox="0 0 120 120" data-fg-d3bl34="0.8:5.6230:/src/app/App.tsx:62:17:3479:99:e:svg:e" data-fgid-d3bl34=":r54:"><path d="M 30 10 L 90 10 L 120 40 L 100 60 L 120 80 L 90 110 L 30 110 L 0 80 L 20 60 L 0 40 Z" stroke="#ffffff" stroke-width="2" stroke-linejoin="miter" fill="none" opacity="0.3" data-fg-bdvh5="1.17:5.3576:/src/app/components/LogoIcon.tsx:17:9:372:245:e:path"/><path d="M 30 20 L 90 20 L 110 40 L 90 60 L 110 80 L 90 100 L 30 100 L 10 80 L 30 60 L 10 40 Z" stroke="#ffffff" stroke-width="2.5" stroke-linejoin="miter" fill="none" data-fg-bdvh7="1.17:5.3576:/src/app/components/LogoIcon.tsx:26:9:662:224:e:path"/><g stroke-linecap="square" data-fg-bdvh9="1.17:5.3576:/src/app/components/LogoIcon.tsx:37:5:986:420:e:g:etxtetxte"><path d="M 85 40 L 50 40 L 30 60 L 90 60 L 70 80 L 35 80" stroke="#ffffff" stroke-width="14" stroke-linejoin="miter" fill="none" data-fg-bdvh10="1.17:5.3576:/src/app/components/LogoIcon.tsx:38:7:1019:173:e:path"/><polygon points="85,24 108,40 85,56" fill="#ffffff" data-fg-bdvh12="1.17:5.3576:/src/app/components/LogoIcon.tsx:46:7:1242:52:e:polygon"/><polygon points="35,64 12,80 35,96" fill="#ffffff" data-fg-bdvh14="1.17:5.3576:/src/app/components/LogoIcon.tsx:48:7:1346:51:e:polygon"/></g></svg><svg x="130" y="45" width="60" height="60" viewBox="0 0 120 120" data-fg-d3bl36="0.8:5.6230:/src/app/App.tsx:63:17:3595:100:e:svg:e" data-fgid-d3bl36=":r56:"><path d="M 30 10 L 90 10 L 120 40 L 100 60 L 120 80 L 90 110 L 30 110 L 0 80 L 20 60 L 0 40 Z" stroke="#ffffff" stroke-width="2" stroke-linejoin="miter" fill="none" opacity="0.3" data-fg-bdvh5="1.17:5.3576:/src/app/components/LogoIcon.tsx:17:9:372:245:e:path"/><path d="M 30 20 L 90 20 L 110 40 L 90 60 L 110 80 L 90 100 L 30 100 L 10 80 L 30 60 L 10 40 Z" stroke="#ffffff" stroke-width="2.5" stroke-linejoin="miter" fill="none" data-fg-bdvh7="1.17:5.3576:/src/app/components/LogoIcon.tsx:26:9:662:224:e:path"/><g stroke-linecap="square" data-fg-bdvh9="1.17:5.3576:/src/app/components/LogoIcon.tsx:37:5:986:420:e:g:etxtetxte"><path d="M 85 40 L 50 40 L 30 60 L 90 60 L 70 80 L 35 80" stroke="#ffffff" stroke-width="14" stroke-linejoin="miter" fill="none" data-fg-bdvh10="1.17:5.3576:/src/app/components/LogoIcon.tsx:38:7:1019:173:e:path"/><polygon points="85,24 108,40 85,56" fill="#ffffff" data-fg-bdvh12="1.17:5.3576:/src/app/components/LogoIcon.tsx:46:7:1242:52:e:polygon"/><polygon points="35,64 12,80 35,96" fill="#ffffff" data-fg-bdvh14="1.17:5.3576:/src/app/components/LogoIcon.tsx:48:7:1346:51:e:polygon"/></g></svg><svg x="220" y="35" width="80" height="80" viewBox="0 0 120 120" data-fg-d3bl38="0.8:5.6230:/src/app/App.tsx:64:17:3712:100:e:svg:e" data-fgid-d3bl38=":r58:"><path d="M 30 10 L 90 10 L 120 40 L 100 60 L 120 80 L 90 110 L 30 110 L 0 80 L 20 60 L 0 40 Z" stroke="#ffffff" stroke-width="2" stroke-linejoin="miter" fill="none" opacity="0.3" data-fg-bdvh5="1.17:5.3576:/src/app/components/LogoIcon.tsx:17:9:372:245:e:path"/><path d="M 30 20 L 90 20 L 110 40 L 90 60 L 110 80 L 90 100 L 30 100 L 10 80 L 30 60 L 10 40 Z" stroke="#ffffff" stroke-width="2.5" stroke-linejoin="miter" fill="none" data-fg-bdvh7="1.17:5.3576:/src/app/components/LogoIcon.tsx:26:9:662:224:e:path"/><g stroke-linecap="square" data-fg-bdvh9="1.17:5.3576:/src/app/components/LogoIcon.tsx:37:5:986:420:e:g:etxtetxte"><path d="M 85 40 L 50 40 L 30 60 L 90 60 L 70 80 L 35 80" stroke="#ffffff" stroke-width="14" stroke-linejoin="miter" fill="none" data-fg-bdvh10="1.17:5.3576:/src/app/components/LogoIcon.tsx:38:7:1019:173:e:path"/><polygon points="85,24 108,40 85,56" fill="#ffffff" data-fg-bdvh12="1.17:5.3576:/src/app/components/LogoIcon.tsx:46:7:1242:52:e:polygon"/><polygon points="35,64 12,80 35,96" fill="#ffffff" data-fg-bdvh14="1.17:5.3576:/src/app/components/LogoIcon.tsx:48:7:1346:51:e:polygon"/></g></svg><svg x="330" y="55" width="40" height="40" viewBox="0 0 120 120" data-fg-d3bl40="0.8:5.6230:/src/app/App.tsx:65:17:3829:110:e:svg:e" data-fgid-d3bl40=":r5a:"><g stroke-linecap="square" data-fg-bdvh9="1.17:5.3576:/src/app/components/LogoIcon.tsx:37:5:986:420:e:g:etxtetxte"><path d="M 85 40 L 50 40 L 30 60 L 90 60 L 70 80 L 35 80" stroke="#ffffff" stroke-width="14" stroke-linejoin="miter" fill="none" data-fg-bdvh10="1.17:5.3576:/src/app/components/LogoIcon.tsx:38:7:1019:173:e:path"/><polygon points="85,24 108,40 85,56" fill="#ffffff" data-fg-bdvh12="1.17:5.3576:/src/app/components/LogoIcon.tsx:46:7:1242:52:e:polygon"/><polygon points="35,64 12,80 35,96" fill="#ffffff" data-fg-bdvh14="1.17:5.3576:/src/app/components/LogoIcon.tsx:48:7:1346:51:e:polygon"/></g></svg><rect y="150" width="400" height="150" fill="#f5f5f5" data-fg-d3bl43="0.8:5.6230:/src/app/App.tsx:68:17:4012:56:e:rect"/><svg x="50" y="205" width="40" height="40" viewBox="0 0 120 120" data-fg-d3bl44="0.8:5.6230:/src/app/App.tsx:70:17:4102:100:e:svg:e" data-fgid-d3bl44=":r5c:"><path d="M 30 10 L 90 10 L 120 40 L 100 60 L 120 80 L 90 110 L 30 110 L 0 80 L 20 60 L 0 40 Z" stroke="#000000" stroke-width="2" stroke-linejoin="miter" fill="none" opacity="0.3" data-fg-bdvh5="1.17:5.3576:/src/app/components/LogoIcon.tsx:17:9:372:245:e:path"/><path d="M 30 20 L 90 20 L 110 40 L 90 60 L 110 80 L 90 100 L 30 100 L 10 80 L 30 60 L 10 40 Z" stroke="#000000" stroke-width="2.5" stroke-linejoin="miter" fill="none" data-fg-bdvh7="1.17:5.3576:/src/app/components/LogoIcon.tsx:26:9:662:224:e:path"/><g stroke-linecap="square" data-fg-bdvh9="1.17:5.3576:/src/app/components/LogoIcon.tsx:37:5:986:420:e:g:etxtetxte"><path d="M 85 40 L 50 40 L 30 60 L 90 60 L 70 80 L 35 80" stroke="#000000" stroke-width="14" stroke-linejoin="miter" fill="none" data-fg-bdvh10="1.17:5.3576:/src/app/components/LogoIcon.tsx:38:7:1019:173:e:path"/><polygon points="85,24 108,40 85,56" fill="#000000" data-fg-bdvh12="1.17:5.3576:/src/app/components/LogoIcon.tsx:46:7:1242:52:e:polygon"/><polygon points="35,64 12,80 35,96" fill="#000000" data-fg-bdvh14="1.17:5.3576:/src/app/components/LogoIcon.tsx:48:7:1346:51:e:polygon"/></g></svg><svg x="130" y="195" width="60" height="60" viewBox="0 0 120 120" data-fg-d3bl46="0.8:5.6230:/src/app/App.tsx:71:17:4219:101:e:svg:e" data-fgid-d3bl46=":r5e:"><path d="M 30 10 L 90 10 L 120 40 L 100 60 L 120 80 L 90 110 L 30 110 L 0 80 L 20 60 L 0 40 Z" stroke="#000000" stroke-width="2" stroke-linejoin="miter" fill="none" opacity="0.3" data-fg-bdvh5="1.17:5.3576:/src/app/components/LogoIcon.tsx:17:9:372:245:e:path"/><path d="M 30 20 L 90 20 L 110 40 L 90 60 L 110 80 L 90 100 L 30 100 L 10 80 L 30 60 L 10 40 Z" stroke="#000000" stroke-width="2.5" stroke-linejoin="miter" fill="none" data-fg-bdvh7="1.17:5.3576:/src/app/components/LogoIcon.tsx:26:9:662:224:e:path"/><g stroke-linecap="square" data-fg-bdvh9="1.17:5.3576:/src/app/components/LogoIcon.tsx:37:5:986:420:e:g:etxtetxte"><path d="M 85 40 L 50 40 L 30 60 L 90 60 L 70 80 L 35 80" stroke="#000000" stroke-width="14" stroke-linejoin="miter" fill="none" data-fg-bdvh10="1.17:5.3576:/src/app/components/LogoIcon.tsx:38:7:1019:173:e:path"/><polygon points="85,24 108,40 85,56" fill="#000000" data-fg-bdvh12="1.17:5.3576:/src/app/components/LogoIcon.tsx:46:7:1242:52:e:polygon"/><polygon points="35,64 12,80 35,96" fill="#000000" data-fg-bdvh14="1.17:5.3576:/src/app/components/LogoIcon.tsx:48:7:1346:51:e:polygon"/></g></svg><svg x="220" y="185" width="80" height="80" viewBox="0 0 120 120" data-fg-d3bl48="0.8:5.6230:/src/app/App.tsx:72:17:4337:101:e:svg:e" data-fgid-d3bl48=":r5g:"><path d="M 30 10 L 90 10 L 120 40 L 100 60 L 120 80 L 90 110 L 30 110 L 0 80 L 20 60 L 0 40 Z" stroke="#000000" stroke-width="2" stroke-linejoin="miter" fill="none" opacity="0.3" data-fg-bdvh5="1.17:5.3576:/src/app/components/LogoIcon.tsx:17:9:372:245:e:path"/><path d="M 30 20 L 90 20 L 110 40 L 90 60 L 110 80 L 90 100 L 30 100 L 10 80 L 30 60 L 10 40 Z" stroke="#000000" stroke-width="2.5" stroke-linejoin="miter" fill="none" data-fg-bdvh7="1.17:5.3576:/src/app/components/LogoIcon.tsx:26:9:662:224:e:path"/><g stroke-linecap="square" data-fg-bdvh9="1.17:5.3576:/src/app/components/LogoIcon.tsx:37:5:986:420:e:g:etxtetxte"><path d="M 85 40 L 50 40 L 30 60 L 90 60 L 70 80 L 35 80" stroke="#000000" stroke-width="14" stroke-linejoin="miter" fill="none" data-fg-bdvh10="1.17:5.3576:/src/app/components/LogoIcon.tsx:38:7:1019:173:e:path"/><polygon points="85,24 108,40 85,56" fill="#000000" data-fg-bdvh12="1.17:5.3576:/src/app/components/LogoIcon.tsx:46:7:1242:52:e:polygon"/><polygon points="35,64 12,80 35,96" fill="#000000" data-fg-bdvh14="1.17:5.3576:/src/app/components/LogoIcon.tsx:48:7:1346:51:e:polygon"/></g></svg><svg x="330" y="205" width="40" height="40" viewBox="0 0 120 120" data-fg-d3bl50="0.8:5.6230:/src/app/App.tsx:73:17:4455:111:e:svg:e" data-fgid-d3bl50=":r5i:"><g stroke-linecap="square" data-fg-bdvh9="1.17:5.3576:/src/app/components/LogoIcon.tsx:37:5:986:420:e:g:etxtetxte"><path d="M 85 40 L 50 40 L 30 60 L 90 60 L 70 80 L 35 80" stroke="#000000" stroke-width="14" stroke-linejoin="miter" fill="none" data-fg-bdvh10="1.17:5.3576:/src/app/components/LogoIcon.tsx:38:7:1019:173:e:path"/><polygon points="85,24 108,40 85,56" fill="#000000" data-fg-bdvh12="1.17:5.3576:/src/app/components/LogoIcon.tsx:46:7:1242:52:e:polygon"/><polygon points="35,64 12,80 35,96" fill="#000000" data-fg-bdvh14="1.17:5.3576:/src/app/components/LogoIcon.tsx:48:7:1346:51:e:polygon"/></g></svg></svg>